<svg xmlns="http://www.w3.org/2000/svg" xmlns:xlink="http://www.w3.org/1999/xlink" width="1123" zoomAndPan="magnify" viewBox="0 0 841.92 842.249979" height="1123" preserveAspectRatio="xMidYMid meet" version="1.0"><defs><clipPath id="0d18c51bb8"><path d="M 478 495 L 823.964844 495 L 823.964844 841.5 L 478 841.5 Z M 478 495 " clip-rule="nonzero"/></clipPath></defs><path fill="#ffffff" d="M 470.164062 210.929688 C 470.164062 201.507812 472.46875 192.671875 476.511719 184.851562 C 480.105469 177.894531 480.421875 169.757812 477.394531 162.550781 C 456.289062 112.496094 404.8125 76.160156 349.128906 75.683594 L 347.84375 75.683594 C 288.90625 75.683594 237.113281 110.574219 215.148438 162.03125 C 211.984375 169.464844 212.527344 177.824219 216.234375 185.035156 C 220.234375 192.808594 222.492188 201.597656 222.492188 210.929688 L 222.492188 229.414062 C 224.640625 242.320312 224.074219 254.566406 223.644531 264.554688 C 223.464844 268.894531 223.261719 272.984375 223.304688 276.597656 C 223.554688 282.316406 223.464844 287.851562 223.351562 292.757812 C 223.351562 294 223.304688 295.378906 223.304688 296.800781 L 254.605469 304.191406 C 259.644531 302.5625 265.023438 301.707031 270.46875 301.707031 L 318.554688 301.707031 C 347.367188 301.707031 370.710938 325.046875 370.710938 353.859375 L 370.710938 363.847656 C 370.710938 392.660156 347.367188 416.003906 318.554688 416.003906 L 301.042969 416.003906 C 335.886719 433.8125 376.902344 431.300781 410.867188 406.761719 C 437.578125 387.441406 459.859375 365.136719 472.582031 337.433594 C 471.15625 332.753906 470.34375 327.851562 470.207031 322.8125 C 470.164062 322.246094 470.164062 321.613281 470.164062 321.050781 L 470.164062 210.929688 " fill-opacity="1" fill-rule="nonzero"/><path fill="#ffffff" d="M 136.507812 344.574219 L 165.660156 344.574219 C 165.773438 344.574219 165.910156 344.527344 166.023438 344.527344 L 216.640625 358.46875 L 257.023438 367.960938 C 257.316406 368.957031 257.746094 369.90625 258.265625 370.808594 C 260.660156 375.058594 265.226562 377.90625 270.46875 377.90625 L 318.554688 377.90625 C 326.328125 377.90625 332.609375 371.621094 332.609375 363.847656 L 332.609375 353.859375 C 332.609375 346.085938 326.328125 339.804688 318.554688 339.804688 L 270.46875 339.804688 C 266.265625 339.804688 262.511719 341.613281 259.9375 344.574219 L 192.257812 328.664062 C 190.628906 327.285156 189.5 325.886719 188.84375 324.484375 C 189.003906 323.332031 189.183594 322.222656 189.183594 321.050781 L 189.183594 210.929688 C 189.183594 198.820312 180.007812 188.964844 168.234375 187.65625 C 168.507812 186.207031 168.777344 184.808594 169.027344 183.542969 C 185.117188 98.054688 261.066406 36.816406 349.46875 37.585938 C 434.007812 38.332031 509.640625 101.917969 523.449219 185.351562 C 523.582031 186.140625 523.582031 186.953125 523.628906 187.746094 C 512.261719 189.417969 503.515625 199.113281 503.515625 210.929688 L 503.515625 321.050781 C 503.515625 334.019531 514.046875 344.574219 527.042969 344.574219 L 556.191406 344.574219 C 569.1875 344.574219 579.714844 334.019531 579.714844 321.050781 L 579.714844 210.929688 C 579.714844 197.9375 569.1875 187.40625 556.191406 187.40625 L 555.605469 187.40625 C 553.527344 176.988281 552.238281 166.300781 549.210938 156.265625 C 521.730469 64.90625 431.386719 0.0507812 338.667969 5.8125 C 235.417969 12.183594 155.492188 82.011719 137.480469 180.109375 C 137.027344 182.617188 136.304688 185.054688 135.492188 187.496094 C 122.996094 188.039062 112.984375 198.277344 112.984375 210.929688 L 112.984375 321.050781 C 112.984375 334.019531 123.515625 344.574219 136.507812 344.574219 " fill-opacity="1" fill-rule="nonzero"/><path fill="#ffffff" d="M 480.671875 527.476562 L 510.476562 497.671875 C 522.996094 485.152344 539.628906 478.261719 557.34375 478.261719 C 562.882812 478.261719 568.328125 478.9375 573.59375 480.25 C 578.179688 472.609375 584.28125 465.988281 591.445312 460.746094 C 560.554688 434.351562 521.234375 416.886719 476.46875 410.964844 C 450.863281 471.59375 396.496094 478.824219 342.058594 478.171875 C 290.964844 477.558594 240.074219 468.679688 215.847656 410.671875 C 113.550781 426.941406 48.605469 490.191406 31.792969 589.148438 C 17.757812 671.742188 55.15625 725.386719 138.8125 727.761719 C 240.753906 730.652344 342.824219 731.46875 444.832031 730.109375 C 436.152344 718.902344 430.980469 704.847656 430.980469 689.617188 L 430.980469 647.449219 C 430.980469 623.316406 443.949219 602.140625 463.292969 590.570312 C 457.824219 568.695312 463.609375 544.5625 480.671875 527.476562 " fill-opacity="1" fill-rule="nonzero"/><g clip-path="url(#0d18c51bb8)"><path fill="#ffffff" d="M 651.53125 738.878906 C 613.136719 738.878906 582.019531 707.761719 582.019531 669.367188 C 582.019531 630.976562 613.136719 599.859375 651.53125 599.859375 C 689.925781 599.859375 721.042969 630.976562 721.042969 669.367188 C 721.042969 707.761719 689.925781 738.878906 651.53125 738.878906 Z M 805.828125 628.828125 L 788 628.828125 C 785.015625 618.796875 780.972656 609.238281 775.976562 600.265625 L 788.722656 587.519531 C 796 580.242188 796 568.425781 788.722656 561.148438 L 758.914062 531.34375 C 751.640625 524.066406 739.84375 524.066406 732.542969 531.34375 L 719.574219 544.335938 C 710.667969 539.476562 701.179688 535.546875 691.257812 532.675781 L 691.257812 514.234375 C 691.257812 503.953125 682.917969 495.617188 672.613281 495.617188 L 630.449219 495.617188 C 620.167969 495.617188 611.828125 503.953125 611.828125 514.234375 L 611.828125 532.675781 C 601.882812 535.546875 592.417969 539.476562 583.511719 544.335938 L 570.519531 531.34375 C 563.242188 524.066406 551.425781 524.066406 544.148438 531.34375 L 514.339844 561.148438 C 507.066406 568.425781 507.066406 580.242188 514.339844 587.519531 L 527.085938 600.265625 C 522.09375 609.238281 518.046875 618.796875 515.066406 628.828125 L 497.234375 628.828125 C 486.929688 628.828125 478.613281 637.167969 478.613281 647.449219 L 478.613281 689.617188 C 478.613281 699.921875 486.929688 708.257812 497.234375 708.257812 L 514.589844 708.257812 C 517.484375 718.496094 521.503906 728.234375 526.523438 737.386719 L 514.339844 749.566406 C 507.066406 756.84375 507.066406 768.640625 514.339844 775.917969 L 544.148438 805.722656 C 551.425781 813 563.242188 813 570.519531 805.722656 L 582.429688 793.8125 C 591.648438 798.945312 601.5 803.078125 611.828125 806.0625 L 611.828125 822.828125 C 611.828125 833.132812 620.167969 841.472656 630.449219 841.472656 L 672.613281 841.472656 C 682.917969 841.472656 691.257812 833.132812 691.257812 822.828125 L 691.257812 806.0625 C 701.585938 803.078125 711.414062 798.945312 720.636719 793.8125 L 732.542969 805.722656 C 739.84375 813 751.640625 813 758.914062 805.722656 L 788.722656 775.917969 C 796 768.640625 796 756.84375 788.722656 749.566406 L 776.5625 737.386719 C 781.558594 728.234375 785.582031 718.496094 788.472656 708.257812 L 805.828125 708.257812 C 816.132812 708.257812 824.472656 699.921875 824.472656 689.617188 L 824.472656 647.449219 C 824.472656 637.167969 816.132812 628.828125 805.828125 628.828125 " fill-opacity="1" fill-rule="nonzero"/></g></svg>