<svg xmlns="http://www.w3.org/2000/svg" xmlns:xlink="http://www.w3.org/1999/xlink" width="1123" zoomAndPan="magnify" viewBox="0 0 841.92 842.249979" height="1123" preserveAspectRatio="xMidYMid meet" version="1.0"><defs><clipPath id="06b5f4f319"><path d="M 0.335938 0 L 818.605469 0 L 818.605469 818.269531 L 0.335938 818.269531 Z M 0.335938 0 " clip-rule="nonzero"/></clipPath></defs><g clip-path="url(#06b5f4f319)"><path fill="#ffffff" d="M 409.59375 0 C 402.894531 0 396.203125 0.164062 389.511719 0.492188 C 382.820312 0.820312 376.144531 1.3125 369.480469 1.96875 C 362.8125 2.628906 356.167969 3.445312 349.542969 4.429688 C 342.917969 5.414062 336.320312 6.558594 329.75 7.863281 C 323.179688 9.171875 316.648438 10.636719 310.152344 12.265625 C 303.65625 13.890625 297.199219 15.679688 290.792969 17.621094 C 284.382812 19.566406 278.023438 21.667969 271.71875 23.921875 C 265.410156 26.179688 259.164062 28.589844 252.976562 31.152344 C 246.789062 33.714844 240.667969 36.429688 234.613281 39.292969 C 228.558594 42.15625 222.578125 45.167969 216.671875 48.324219 C 210.761719 51.480469 204.9375 54.78125 199.191406 58.226562 C 193.449219 61.667969 187.789062 65.25 182.222656 68.972656 C 176.652344 72.695312 171.179688 76.550781 165.796875 80.539062 C 160.417969 84.527344 155.140625 88.648438 149.960938 92.898438 C 144.785156 97.144531 139.714844 101.519531 134.75 106.019531 C 129.789062 110.515625 124.941406 115.132812 120.203125 119.867188 C 115.46875 124.605469 110.851562 129.453125 106.351562 134.417969 C 101.855469 139.378906 97.480469 144.449219 93.230469 149.628906 C 88.984375 154.804688 84.863281 160.082031 80.875 165.464844 C 76.882812 170.84375 73.027344 176.316406 69.308594 181.886719 C 65.585938 187.457031 62.003906 193.113281 58.558594 198.859375 C 55.117188 204.601562 51.816406 210.429688 48.660156 216.335938 C 45.503906 222.242188 42.492188 228.222656 39.628906 234.277344 C 36.765625 240.332031 34.050781 246.453125 31.488281 252.640625 C 28.925781 258.828125 26.515625 265.078125 24.257812 271.382812 C 22 277.691406 19.902344 284.046875 17.957031 290.457031 C 16.011719 296.867188 14.226562 303.320312 12.597656 309.816406 C 10.972656 316.3125 9.503906 322.847656 8.199219 329.417969 C 6.890625 335.984375 5.746094 342.582031 4.765625 349.207031 C 3.78125 355.832031 2.960938 362.480469 2.304688 369.144531 C 1.648438 375.808594 1.15625 382.488281 0.828125 389.175781 C 0.5 395.867188 0.335938 402.5625 0.335938 409.257812 C 0.335938 415.957031 0.5 422.648438 0.828125 429.339844 C 1.15625 436.03125 1.648438 442.707031 2.304688 449.371094 C 2.960938 456.039062 3.78125 462.683594 4.765625 469.308594 C 5.746094 475.933594 6.890625 482.53125 8.199219 489.101562 C 9.503906 495.671875 10.972656 502.203125 12.597656 508.699219 C 14.226562 515.199219 16.011719 521.652344 17.957031 528.058594 C 19.902344 534.46875 22 540.828125 24.257812 547.132812 C 26.515625 553.441406 28.925781 559.6875 31.488281 565.875 C 34.050781 572.0625 36.765625 578.183594 39.628906 584.238281 C 42.492188 590.292969 45.503906 596.273438 48.660156 602.183594 C 51.816406 608.089844 55.117188 613.914062 58.558594 619.660156 C 62.003906 625.40625 65.585938 631.0625 69.308594 636.628906 C 73.027344 642.199219 76.882812 647.675781 80.875 653.054688 C 84.863281 658.433594 88.984375 663.710938 93.230469 668.890625 C 97.480469 674.066406 101.855469 679.136719 106.351562 684.101562 C 110.851562 689.0625 115.46875 693.910156 120.203125 698.648438 C 124.941406 703.382812 129.789062 708 134.75 712.5 C 139.714844 716.996094 144.785156 721.371094 149.960938 725.621094 C 155.140625 729.867188 160.417969 733.988281 165.796875 737.976562 C 171.179688 741.96875 176.652344 745.824219 182.222656 749.542969 C 187.789062 753.265625 193.449219 756.847656 199.191406 760.292969 C 204.9375 763.734375 210.761719 767.035156 216.671875 770.191406 C 222.578125 773.351562 228.558594 776.359375 234.613281 779.222656 C 240.667969 782.085938 246.789062 784.800781 252.976562 787.363281 C 259.164062 789.925781 265.410156 792.335938 271.71875 794.59375 C 278.023438 796.851562 284.382812 798.949219 290.792969 800.894531 C 297.199219 802.839844 303.65625 804.625 310.152344 806.253906 C 316.648438 807.878906 323.179688 809.347656 329.75 810.652344 C 336.320312 811.960938 342.917969 813.105469 349.542969 814.085938 C 356.167969 815.070312 362.8125 815.890625 369.480469 816.546875 C 376.144531 817.203125 382.820312 817.695312 389.511719 818.023438 C 396.203125 818.351562 402.894531 818.515625 409.59375 818.515625 C 416.289062 818.515625 422.984375 818.351562 429.675781 818.023438 C 436.363281 817.695312 443.042969 817.203125 449.707031 816.546875 C 456.375 815.890625 463.019531 815.070312 469.644531 814.085938 C 476.269531 813.105469 482.867188 811.960938 489.433594 810.652344 C 496.003906 809.347656 502.539062 807.878906 509.035156 806.253906 C 515.53125 804.625 521.984375 802.839844 528.394531 800.894531 C 534.804688 798.949219 541.160156 796.851562 547.46875 794.59375 C 553.773438 792.335938 560.023438 789.925781 566.210938 787.363281 C 572.398438 784.800781 578.519531 782.085938 584.574219 779.222656 C 590.628906 776.359375 596.609375 773.351562 602.515625 770.191406 C 608.421875 767.035156 614.25 763.734375 619.992188 760.292969 C 625.738281 756.847656 631.394531 753.265625 636.964844 749.542969 C 642.535156 745.824219 648.007812 741.96875 653.386719 737.976562 C 658.769531 733.988281 664.046875 729.867188 669.222656 725.621094 C 674.402344 721.371094 679.472656 716.996094 684.433594 712.5 C 689.398438 708 694.246094 703.382812 698.984375 698.648438 C 703.71875 693.910156 708.335938 689.0625 712.832031 684.101562 C 717.332031 679.136719 721.707031 674.066406 725.953125 668.890625 C 730.203125 663.710938 734.324219 658.433594 738.3125 653.054688 C 742.300781 647.675781 746.15625 642.199219 749.878906 636.628906 C 753.601562 631.0625 757.183594 625.40625 760.625 619.660156 C 764.070312 613.914062 767.371094 608.089844 770.527344 602.183594 C 773.683594 596.273438 776.695312 590.292969 779.558594 584.238281 C 782.421875 578.183594 785.136719 572.0625 787.699219 565.875 C 790.261719 559.6875 792.671875 553.441406 794.929688 547.132812 C 797.183594 540.828125 799.285156 534.46875 801.230469 528.058594 C 803.171875 521.652344 804.960938 515.199219 806.585938 508.699219 C 808.214844 502.203125 809.679688 495.671875 810.988281 489.101562 C 812.292969 482.53125 813.4375 475.933594 814.421875 469.308594 C 815.40625 462.683594 816.222656 456.039062 816.882812 449.371094 C 817.539062 442.707031 818.03125 436.03125 818.359375 429.339844 C 818.6875 422.648438 818.851562 415.957031 818.851562 409.257812 C 818.851562 402.5625 818.6875 395.867188 818.359375 389.175781 C 818.03125 382.488281 817.539062 375.808594 816.882812 369.144531 C 816.222656 362.480469 815.40625 355.832031 814.421875 349.207031 C 813.4375 342.582031 812.292969 335.984375 810.988281 329.417969 C 809.679688 322.847656 808.214844 316.3125 806.585938 309.816406 C 804.960938 303.320312 803.171875 296.867188 801.230469 290.457031 C 799.285156 284.046875 797.183594 277.691406 794.929688 271.382812 C 792.671875 265.078125 790.261719 258.828125 787.699219 252.640625 C 785.136719 246.453125 782.421875 240.332031 779.558594 234.277344 C 776.695312 228.222656 773.683594 222.242188 770.527344 216.335938 C 767.371094 210.429688 764.070312 204.601562 760.625 198.859375 C 757.183594 193.113281 753.601562 187.457031 749.878906 181.886719 C 746.15625 176.316406 742.300781 170.84375 738.3125 165.464844 C 734.324219 160.082031 730.203125 154.804688 725.953125 149.628906 C 721.707031 144.449219 717.332031 139.378906 712.832031 134.417969 C 708.335938 129.453125 703.71875 124.605469 698.984375 119.867188 C 694.246094 115.132812 689.398438 110.515625 684.433594 106.019531 C 679.472656 101.519531 674.402344 97.144531 669.222656 92.898438 C 664.046875 88.648438 658.769531 84.527344 653.386719 80.539062 C 648.007812 76.550781 642.535156 72.695312 636.964844 68.972656 C 631.394531 65.25 625.738281 61.667969 619.992188 58.226562 C 614.25 54.78125 608.421875 51.480469 602.515625 48.324219 C 596.609375 45.167969 590.628906 42.15625 584.574219 39.292969 C 578.519531 36.429688 572.398438 33.714844 566.210938 31.152344 C 560.023438 28.589844 553.773438 26.179688 547.46875 23.921875 C 541.160156 21.667969 534.804688 19.566406 528.394531 17.621094 C 521.984375 15.679688 515.53125 13.890625 509.035156 12.265625 C 502.539062 10.636719 496.003906 9.171875 489.433594 7.863281 C 482.867188 6.558594 476.269531 5.414062 469.644531 4.429688 C 463.019531 3.445312 456.375 2.628906 449.707031 1.96875 C 443.042969 1.3125 436.363281 0.820312 429.675781 0.492188 C 422.984375 0.164062 416.289062 0 409.59375 0 Z M 409.59375 118.101562 C 411.984375 118.101562 414.375 118.160156 416.765625 118.277344 C 419.152344 118.394531 421.539062 118.570312 423.917969 118.804688 C 426.300781 119.039062 428.671875 119.332031 431.039062 119.683594 C 433.40625 120.035156 435.761719 120.441406 438.109375 120.910156 C 440.453125 121.375 442.789062 121.898438 445.109375 122.480469 C 447.429688 123.0625 449.734375 123.699219 452.023438 124.394531 C 454.3125 125.089844 456.582031 125.839844 458.835938 126.644531 C 461.085938 127.449219 463.316406 128.3125 465.527344 129.226562 C 467.738281 130.140625 469.921875 131.109375 472.085938 132.132812 C 474.25 133.15625 476.382812 134.230469 478.496094 135.359375 C 480.605469 136.488281 482.683594 137.664062 484.738281 138.894531 C 486.789062 140.125 488.808594 141.40625 490.796875 142.734375 C 492.785156 144.0625 494.742188 145.4375 496.664062 146.863281 C 498.585938 148.289062 500.46875 149.761719 502.320312 151.277344 C 504.167969 152.796875 505.976562 154.359375 507.75 155.964844 C 509.523438 157.570312 511.253906 159.21875 512.945312 160.910156 C 514.636719 162.601562 516.285156 164.335938 517.894531 166.105469 C 519.5 167.878906 521.0625 169.691406 522.578125 171.539062 C 524.097656 173.386719 525.566406 175.273438 526.992188 177.195312 C 528.417969 179.117188 529.792969 181.070312 531.125 183.058594 C 532.453125 185.046875 533.730469 187.070312 534.960938 189.121094 C 536.191406 191.171875 537.371094 193.253906 538.5 195.363281 C 539.625 197.472656 540.699219 199.609375 541.722656 201.769531 C 542.746094 203.933594 543.714844 206.121094 544.628906 208.328125 C 545.546875 210.539062 546.40625 212.769531 547.210938 215.023438 C 548.019531 217.273438 548.769531 219.546875 549.464844 221.835938 C 550.15625 224.125 550.796875 226.429688 551.375 228.75 C 551.957031 231.070312 552.480469 233.402344 552.949219 235.75 C 553.414062 238.09375 553.824219 240.453125 554.175781 242.816406 C 554.527344 245.183594 554.820312 247.558594 555.054688 249.9375 C 555.289062 252.316406 555.464844 254.703125 555.582031 257.09375 C 555.699219 259.480469 555.757812 261.871094 555.757812 264.265625 C 555.757812 266.65625 555.699219 269.046875 555.582031 271.4375 C 555.464844 273.824219 555.289062 276.210938 555.054688 278.589844 C 554.820312 280.972656 554.527344 283.34375 554.175781 285.710938 C 553.824219 288.078125 553.414062 290.433594 552.949219 292.777344 C 552.480469 295.125 551.957031 297.457031 551.375 299.777344 C 550.796875 302.097656 550.15625 304.402344 549.464844 306.691406 C 548.769531 308.980469 548.019531 311.253906 547.210938 313.503906 C 546.40625 315.757812 545.546875 317.988281 544.628906 320.199219 C 543.714844 322.410156 542.746094 324.59375 541.722656 326.757812 C 540.699219 328.917969 539.625 331.054688 538.5 333.164062 C 537.371094 335.273438 536.191406 337.355469 534.960938 339.40625 C 533.730469 341.460938 532.453125 343.480469 531.125 345.46875 C 529.792969 347.457031 528.417969 349.414062 526.992188 351.332031 C 525.566406 353.253906 524.097656 355.140625 522.578125 356.988281 C 521.0625 358.839844 519.5 360.648438 517.894531 362.421875 C 516.285156 364.195312 514.636719 365.925781 512.945312 367.617188 C 511.253906 369.308594 509.523438 370.957031 507.75 372.5625 C 505.976562 374.171875 504.167969 375.734375 502.320312 377.25 C 500.46875 378.769531 498.585938 380.238281 496.664062 381.664062 C 494.742188 383.089844 492.785156 384.464844 490.796875 385.792969 C 488.808594 387.125 486.789062 388.402344 484.734375 389.632812 C 482.683594 390.863281 480.605469 392.042969 478.496094 393.167969 C 476.382812 394.296875 474.25 395.371094 472.085938 396.394531 C 469.921875 397.417969 467.738281 398.386719 465.527344 399.300781 C 463.316406 400.21875 461.085938 401.078125 458.835938 401.882812 C 456.582031 402.691406 454.3125 403.441406 452.023438 404.132812 C 449.734375 404.828125 447.429688 405.464844 445.109375 406.046875 C 442.789062 406.628906 440.453125 407.152344 438.109375 407.621094 C 435.761719 408.085938 433.40625 408.496094 431.039062 408.847656 C 428.671875 409.195312 426.300781 409.488281 423.917969 409.722656 C 421.539062 409.957031 419.152344 410.132812 416.765625 410.25 C 414.375 410.371094 411.984375 410.429688 409.59375 410.429688 C 407.199219 410.429688 404.808594 410.371094 402.421875 410.25 C 400.03125 410.132812 397.648438 409.957031 395.265625 409.722656 C 392.886719 409.488281 390.511719 409.195312 388.148438 408.847656 C 385.78125 408.496094 383.425781 408.085938 381.078125 407.621094 C 378.730469 407.152344 376.398438 406.628906 374.078125 406.046875 C 371.757812 405.464844 369.453125 404.828125 367.164062 404.132812 C 364.875 403.441406 362.605469 402.691406 360.351562 401.882812 C 358.101562 401.078125 355.867188 400.21875 353.660156 399.300781 C 351.449219 398.386719 349.261719 397.417969 347.101562 396.394531 C 344.9375 395.371094 342.800781 394.296875 340.691406 393.167969 C 338.582031 392.042969 336.5 390.863281 334.449219 389.632812 C 332.398438 388.402344 330.378906 387.125 328.390625 385.792969 C 326.398438 384.464844 324.445312 383.089844 322.523438 381.664062 C 320.601562 380.238281 318.71875 378.769531 316.867188 377.25 C 315.019531 375.734375 313.207031 374.171875 311.433594 372.5625 C 309.664062 370.957031 307.929688 369.308594 306.238281 367.617188 C 304.546875 365.925781 302.898438 364.195312 301.292969 362.421875 C 299.6875 360.648438 298.125 358.839844 296.605469 356.988281 C 295.089844 355.140625 293.617188 353.253906 292.191406 351.332031 C 290.769531 349.414062 289.390625 347.457031 288.0625 345.46875 C 286.734375 343.480469 285.453125 341.460938 284.222656 339.40625 C 282.996094 337.355469 281.816406 335.273438 280.6875 333.164062 C 279.5625 331.054688 278.484375 328.917969 277.460938 326.757812 C 276.441406 324.59375 275.472656 322.410156 274.554688 320.199219 C 273.640625 317.988281 272.78125 315.757812 271.972656 313.503906 C 271.167969 311.253906 270.417969 308.980469 269.722656 306.691406 C 269.027344 304.402344 268.390625 302.097656 267.808594 299.777344 C 267.226562 297.457031 266.703125 295.125 266.238281 292.777344 C 265.769531 290.433594 265.363281 288.078125 265.011719 285.710938 C 264.660156 283.34375 264.367188 280.972656 264.132812 278.589844 C 263.898438 276.210938 263.722656 273.824219 263.605469 271.4375 C 263.488281 269.046875 263.429688 266.65625 263.429688 264.265625 C 263.429688 261.871094 263.488281 259.480469 263.605469 257.09375 C 263.722656 254.703125 263.898438 252.316406 264.132812 249.9375 C 264.367188 247.558594 264.660156 245.183594 265.011719 242.816406 C 265.363281 240.453125 265.769531 238.09375 266.238281 235.75 C 266.703125 233.402344 267.226562 231.070312 267.808594 228.75 C 268.390625 226.429688 269.027344 224.125 269.722656 221.835938 C 270.417969 219.546875 271.167969 217.273438 271.972656 215.023438 C 272.78125 212.769531 273.640625 210.539062 274.554688 208.328125 C 275.472656 206.121094 276.441406 203.933594 277.460938 201.769531 C 278.484375 199.609375 279.5625 197.472656 280.6875 195.363281 C 281.816406 193.253906 282.996094 191.171875 284.222656 189.121094 C 285.453125 187.070312 286.734375 185.046875 288.0625 183.058594 C 289.390625 181.070312 290.769531 179.117188 292.191406 177.195312 C 293.617188 175.273438 295.089844 173.386719 296.605469 171.539062 C 298.125 169.691406 299.6875 167.878906 301.292969 166.105469 C 302.898438 164.335938 304.546875 162.601562 306.238281 160.910156 C 307.929688 159.21875 309.664062 157.570312 311.433594 155.964844 C 313.207031 154.359375 315.019531 152.796875 316.867188 151.277344 C 318.71875 149.761719 320.601562 148.289062 322.523438 146.863281 C 324.445312 145.4375 326.398438 144.0625 328.390625 142.734375 C 330.378906 141.40625 332.398438 140.125 334.449219 138.894531 C 336.5 137.664062 338.582031 136.488281 340.691406 135.359375 C 342.800781 134.230469 344.9375 133.15625 347.101562 132.132812 C 349.261719 131.109375 351.449219 130.140625 353.660156 129.226562 C 355.867188 128.3125 358.101562 127.449219 360.351562 126.644531 C 362.605469 125.839844 364.875 125.089844 367.164062 124.394531 C 369.453125 123.699219 371.757812 123.0625 374.078125 122.480469 C 376.398438 121.898438 378.730469 121.375 381.078125 120.910156 C 383.425781 120.441406 385.78125 120.035156 388.148438 119.683594 C 390.511719 119.332031 392.886719 119.039062 395.265625 118.804688 C 397.648438 118.570312 400.03125 118.394531 402.421875 118.277344 C 404.808594 118.160156 407.199219 118.101562 409.59375 118.101562 Z M 601.066406 629.671875 C 594.496094 635.375 587.679688 640.769531 580.625 645.855469 C 573.566406 650.941406 566.292969 655.699219 558.808594 660.132812 C 551.320312 664.566406 543.652344 668.652344 535.796875 672.394531 C 527.945312 676.136719 519.9375 679.515625 511.777344 682.535156 C 503.621094 685.558594 495.34375 688.203125 486.945312 690.480469 C 478.550781 692.753906 470.066406 694.648438 461.5 696.160156 C 452.933594 697.671875 444.3125 698.792969 435.644531 699.53125 C 426.976562 700.265625 418.292969 700.609375 409.59375 700.5625 C 400.949219 700.5625 392.324219 700.171875 383.714844 699.398438 C 375.105469 698.621094 366.546875 697.464844 358.042969 695.921875 C 349.539062 694.378906 341.117188 692.460938 332.785156 690.164062 C 324.453125 687.867188 316.238281 685.203125 308.144531 682.171875 C 300.050781 679.136719 292.105469 675.75 284.316406 672.007812 C 276.523438 668.261719 268.917969 664.175781 261.492188 659.75 C 254.066406 655.324219 246.855469 650.578125 239.855469 645.503906 C 232.855469 640.433594 226.097656 635.058594 219.582031 629.382812 C 218.773438 628.671875 217.988281 627.9375 217.21875 627.1875 C 216.453125 626.433594 215.707031 625.660156 214.980469 624.871094 C 214.253906 624.078125 213.550781 623.265625 212.867188 622.4375 C 212.183594 621.609375 211.523438 620.761719 210.882812 619.898438 C 210.246094 619.03125 209.632812 618.152344 209.039062 617.253906 C 208.449219 616.359375 207.878906 615.445312 207.335938 614.519531 C 206.792969 613.589844 206.277344 612.652344 205.78125 611.695312 C 205.289062 610.742188 204.820312 609.773438 204.378906 608.796875 C 203.9375 607.816406 203.519531 606.824219 203.132812 605.824219 C 202.742188 604.824219 202.378906 603.8125 202.042969 602.789062 C 201.707031 601.769531 201.398438 600.742188 201.117188 599.703125 C 200.835938 598.667969 200.582031 597.625 200.355469 596.574219 C 200.128906 595.523438 199.929688 594.46875 199.761719 593.40625 C 199.589844 592.34375 199.449219 591.28125 199.335938 590.210938 C 199.222656 589.144531 199.136719 588.074219 199.078125 587 C 199.023438 585.925781 198.996094 584.851562 198.996094 583.777344 C 198.996094 582.703125 199.023438 581.628906 199.078125 580.558594 C 199.136719 579.484375 199.222656 578.414062 199.335938 577.34375 C 199.449219 576.277344 199.589844 575.210938 199.761719 574.148438 C 199.929688 573.089844 200.128906 572.035156 200.355469 570.984375 C 200.582031 569.933594 200.835938 568.890625 201.117188 567.851562 C 201.398438 566.816406 201.707031 565.785156 202.042969 564.765625 C 202.378906 563.746094 202.742188 562.734375 203.132812 561.730469 C 203.519531 560.730469 203.9375 559.742188 204.378906 558.761719 C 204.820312 557.78125 205.289062 556.816406 205.78125 555.859375 C 206.277344 554.90625 206.792969 553.964844 207.335938 553.039062 C 207.878906 552.109375 208.449219 551.199219 209.039062 550.300781 C 209.632812 549.40625 210.246094 548.523438 210.882812 547.660156 C 211.523438 546.792969 212.183594 545.949219 212.867188 545.117188 C 213.550781 544.289062 214.253906 543.476562 214.980469 542.6875 C 215.707031 541.894531 216.453125 541.121094 217.21875 540.371094 C 217.988281 539.617188 218.773438 538.886719 219.582031 538.175781 C 224.703125 533.71875 229.980469 529.449219 235.414062 525.371094 C 240.84375 521.292969 246.414062 517.414062 252.125 513.734375 C 257.832031 510.054688 263.667969 506.585938 269.625 503.328125 C 275.585938 500.070312 281.652344 497.027344 287.832031 494.207031 C 294.007812 491.382812 300.277344 488.785156 306.644531 486.410156 C 313.007812 484.039062 319.449219 481.898438 325.964844 479.988281 C 332.484375 478.078125 339.0625 476.40625 345.699219 474.96875 C 352.339844 473.53125 359.019531 472.335938 365.742188 471.378906 C 366.566406 471.28125 367.394531 471.238281 368.222656 471.242188 C 369.050781 471.25 369.875 471.304688 370.695312 471.414062 C 371.519531 471.519531 372.332031 471.675781 373.132812 471.882812 C 373.933594 472.085938 374.722656 472.339844 375.492188 472.644531 C 376.265625 472.945312 377.015625 473.292969 377.742188 473.6875 C 378.472656 474.082031 379.175781 474.519531 379.851562 475 C 380.527344 475.480469 381.167969 475.996094 381.78125 476.554688 C 382.394531 477.113281 382.96875 477.710938 383.507812 478.339844 C 384.046875 478.96875 384.546875 479.625 385.003906 480.316406 C 385.460938 481.007812 385.878906 481.722656 386.25 482.464844 C 386.617188 483.203125 386.945312 483.964844 387.222656 484.746094 C 387.5 485.527344 387.730469 486.320312 387.910156 487.128906 C 388.089844 487.9375 388.222656 488.753906 388.300781 489.578125 C 388.382812 490.402344 388.414062 491.230469 388.390625 492.058594 C 388.371094 492.886719 388.300781 493.710938 388.179688 494.53125 C 388.058594 495.347656 387.886719 496.15625 387.667969 496.957031 L 354.488281 585.96875 C 354.234375 587.015625 354.050781 588.070312 353.933594 589.136719 C 353.816406 590.203125 353.769531 591.273438 353.789062 592.347656 C 353.808594 593.421875 353.898438 594.488281 354.058594 595.550781 C 354.214844 596.613281 354.441406 597.660156 354.734375 598.695312 C 355.027344 599.726562 355.386719 600.738281 355.808594 601.722656 C 356.234375 602.710938 356.71875 603.667969 357.265625 604.589844 C 357.8125 605.515625 358.414062 606.402344 359.074219 607.246094 C 359.738281 608.09375 360.449219 608.894531 361.214844 609.648438 L 384.746094 632.742188 C 385.5625 633.542969 386.414062 634.304688 387.308594 635.023438 C 388.199219 635.742188 389.121094 636.417969 390.078125 637.046875 C 391.03125 637.675781 392.015625 638.257812 393.03125 638.789062 C 394.042969 639.324219 395.078125 639.804688 396.136719 640.238281 C 397.199219 640.671875 398.273438 641.054688 399.371094 641.382812 C 400.46875 641.710938 401.578125 641.984375 402.699219 642.203125 C 403.824219 642.425781 404.957031 642.589844 406.09375 642.703125 C 407.234375 642.8125 408.375 642.867188 409.519531 642.867188 C 410.664062 642.867188 411.804688 642.8125 412.945312 642.703125 C 414.085938 642.589844 415.214844 642.425781 416.339844 642.203125 C 417.460938 641.984375 418.570312 641.710938 419.667969 641.382812 C 420.765625 641.054688 421.84375 640.671875 422.902344 640.238281 C 423.960938 639.804688 424.996094 639.324219 426.011719 638.789062 C 427.023438 638.257812 428.007812 637.675781 428.964844 637.046875 C 429.917969 636.417969 430.84375 635.742188 431.734375 635.023438 C 432.625 634.304688 433.476562 633.542969 434.292969 632.742188 L 457.679688 609.648438 C 458.449219 608.910156 459.164062 608.128906 459.828125 607.296875 C 460.492188 606.464844 461.097656 605.59375 461.644531 604.683594 C 462.195312 603.773438 462.683594 602.832031 463.109375 601.855469 C 463.53125 600.878906 463.890625 599.882812 464.1875 598.859375 C 464.480469 597.835938 464.707031 596.800781 464.863281 595.75 C 465.019531 594.695312 465.109375 593.640625 465.128906 592.574219 C 465.144531 591.511719 465.09375 590.453125 464.972656 589.394531 C 464.851562 588.339844 464.664062 587.292969 464.40625 586.261719 C 457.242188 557.03125 440.578125 535.105469 431.078125 497.101562 C 430.964844 496.699219 430.859375 496.289062 430.769531 495.878906 C 430.675781 495.46875 430.597656 495.054688 430.535156 494.636719 C 430.46875 494.21875 430.417969 493.800781 430.378906 493.382812 C 430.339844 492.964844 430.3125 492.542969 430.300781 492.121094 C 430.285156 491.699219 430.285156 491.28125 430.300781 490.859375 C 430.3125 490.4375 430.339844 490.015625 430.378906 489.597656 C 430.417969 489.179688 430.472656 488.761719 430.535156 488.34375 C 430.601562 487.925781 430.679688 487.511719 430.769531 487.101562 C 430.863281 486.691406 430.964844 486.28125 431.082031 485.878906 C 431.199219 485.472656 431.328125 485.070312 431.46875 484.675781 C 431.609375 484.277344 431.765625 483.886719 431.929688 483.5 C 432.097656 483.109375 432.273438 482.730469 432.464844 482.351562 C 432.652344 481.976562 432.855469 481.605469 433.066406 481.242188 C 433.28125 480.878906 433.503906 480.523438 433.738281 480.171875 C 433.972656 479.824219 434.21875 479.480469 434.476562 479.144531 C 434.730469 478.8125 434.996094 478.484375 435.273438 478.167969 C 435.550781 477.847656 435.835938 477.539062 436.132812 477.238281 C 436.429688 476.9375 436.734375 476.648438 437.046875 476.367188 C 437.359375 476.085938 437.683594 475.816406 438.011719 475.554688 C 438.34375 475.292969 438.683594 475.042969 439.027344 474.800781 C 439.375 474.5625 439.726562 474.332031 440.089844 474.113281 C 440.449219 473.894531 440.816406 473.6875 441.1875 473.492188 C 441.5625 473.296875 441.941406 473.113281 442.328125 472.945312 C 442.710938 472.773438 443.101562 472.613281 443.496094 472.464844 C 443.890625 472.316406 444.289062 472.183594 444.691406 472.058594 C 445.09375 471.9375 445.503906 471.828125 445.910156 471.730469 C 446.320312 471.632812 446.734375 471.546875 447.148438 471.476562 C 447.566406 471.402344 447.980469 471.34375 448.402344 471.300781 C 448.820312 471.253906 449.238281 471.222656 449.660156 471.203125 C 450.082031 471.183594 450.503906 471.175781 450.925781 471.183594 C 451.34375 471.1875 451.765625 471.207031 452.1875 471.242188 C 452.605469 471.273438 453.023438 471.320312 453.441406 471.378906 C 460.214844 472.3125 466.945312 473.492188 473.632812 474.914062 C 480.324219 476.335938 486.949219 477.996094 493.519531 479.894531 C 500.089844 481.792969 506.578125 483.929688 512.996094 486.296875 C 519.410156 488.664062 525.730469 491.257812 531.957031 494.082031 C 538.183594 496.90625 544.304688 499.949219 550.3125 503.214844 C 556.320312 506.476562 562.203125 509.953125 567.957031 513.644531 C 573.714844 517.332031 579.332031 521.222656 584.808594 525.316406 C 590.285156 529.410156 595.609375 533.699219 600.773438 538.175781 C 601.578125 538.890625 602.359375 539.625 603.125 540.382812 C 603.886719 541.136719 604.628906 541.914062 605.351562 542.707031 C 606.074219 543.503906 606.777344 544.316406 607.457031 545.152344 C 608.132812 545.984375 608.792969 546.832031 609.425781 547.699219 C 610.058594 548.570312 610.671875 549.453125 611.257812 550.351562 C 611.84375 551.253906 612.40625 552.167969 612.945312 553.097656 C 613.484375 554.027344 614 554.96875 614.488281 555.925781 C 614.976562 556.882812 615.441406 557.851562 615.878906 558.835938 C 616.316406 559.816406 616.726562 560.808594 617.109375 561.8125 C 617.496094 562.816406 617.855469 563.828125 618.183594 564.847656 C 618.515625 565.871094 618.820312 566.902344 619.097656 567.941406 C 619.371094 568.980469 619.621094 570.023438 619.84375 571.074219 C 620.0625 572.128906 620.257812 573.183594 620.421875 574.246094 C 620.585938 575.308594 620.722656 576.371094 620.832031 577.441406 C 620.941406 578.511719 621.019531 579.582031 621.074219 580.65625 C 621.125 581.730469 621.148438 582.800781 621.140625 583.878906 C 621.136719 584.953125 621.105469 586.023438 621.042969 587.097656 C 620.980469 588.171875 620.890625 589.242188 620.769531 590.308594 C 620.652344 591.378906 620.503906 592.441406 620.328125 593.5 C 620.152344 594.5625 619.949219 595.617188 619.71875 596.664062 C 619.488281 597.714844 619.230469 598.757812 618.941406 599.792969 C 618.65625 600.828125 618.34375 601.855469 618.003906 602.875 C 617.660156 603.894531 617.292969 604.902344 616.898438 605.902344 C 616.503906 606.902344 616.082031 607.890625 615.636719 608.867188 C 615.191406 609.847656 614.71875 610.808594 614.21875 611.761719 C 613.722656 612.714844 613.199219 613.652344 612.652344 614.578125 C 612.105469 615.503906 611.53125 616.410156 610.9375 617.304688 C 610.339844 618.199219 609.722656 619.078125 609.078125 619.9375 C 608.4375 620.800781 607.769531 621.644531 607.082031 622.46875 C 606.398438 623.296875 605.6875 624.105469 604.957031 624.890625 C 604.226562 625.679688 603.476562 626.449219 602.707031 627.199219 C 601.9375 627.945312 601.144531 628.675781 600.335938 629.382812 Z M 601.066406 629.671875 " fill-opacity="1" fill-rule="nonzero"/></g></svg>