<svg xmlns="http://www.w3.org/2000/svg" xmlns:xlink="http://www.w3.org/1999/xlink" width="1123" zoomAndPan="magnify" viewBox="0 0 841.92 842.249979" height="1123" preserveAspectRatio="xMidYMid meet" version="1.0"><defs><clipPath id="f466c19763"><path d="M 0.335938 0 L 841.503906 0 L 841.503906 719 L 0.335938 719 Z M 0.335938 0 " clip-rule="nonzero"/></clipPath><clipPath id="9a31e0b990"><path d="M 170 557 L 672 557 L 672 841.5 L 170 841.5 Z M 170 557 " clip-rule="nonzero"/></clipPath></defs><g clip-path="url(#f466c19763)"><path fill="#ffffff" d="M 124.0625 718.488281 C 146.921875 661.789062 181.480469 612.640625 225.429688 574.773438 C 251.941406 551.921875 280.808594 534.101562 311.28125 521.589844 C 265.019531 487.898438 234.871094 433.347656 234.871094 371.863281 C 234.871094 269.769531 317.933594 186.707031 420.03125 186.707031 C 522.128906 186.707031 605.191406 269.769531 605.191406 371.863281 C 605.191406 433.15625 575.238281 487.554688 529.222656 521.277344 C 566.457031 536.359375 601.316406 559.167969 631.851562 588.933594 C 668.402344 624.570312 697.621094 668.839844 717.707031 718.527344 C 794.152344 642.375 841.472656 537 841.472656 420.570312 C 841.472656 188.296875 653.175781 0 420.902344 0 C 188.628906 0 0.335938 188.296875 0.335938 420.570312 C 0.335938 536.976562 47.636719 642.335938 124.0625 718.488281 " fill-opacity="1" fill-rule="nonzero"/></g><path fill="#ffffff" d="M 548.097656 371.863281 C 548.097656 301.25 490.648438 243.796875 420.03125 243.796875 C 349.414062 243.796875 291.964844 301.25 291.964844 371.863281 C 291.964844 442.480469 349.414062 499.933594 420.03125 499.933594 C 490.648438 499.933594 548.097656 442.480469 548.097656 371.863281 " fill-opacity="1" fill-rule="nonzero"/><g clip-path="url(#9a31e0b990)"><path fill="#ffffff" d="M 592 629.8125 C 543.84375 582.878906 483.082031 557.027344 420.914062 557.027344 C 363.703125 557.027344 308.996094 578.117188 262.699219 618.023438 C 221.054688 653.90625 189.316406 702.160156 170.203125 758.265625 C 240.210938 810.324219 326.957031 841.136719 420.902344 841.136719 C 514.851562 841.136719 601.59375 810.324219 671.605469 758.265625 C 654.570312 708.378906 627.277344 664.207031 592 629.8125 " fill-opacity="1" fill-rule="nonzero"/></g></svg>