<svg xmlns="http://www.w3.org/2000/svg" xmlns:xlink="http://www.w3.org/1999/xlink" width="1123" zoomAndPan="magnify" viewBox="0 0 841.92 842.249979" height="1123" preserveAspectRatio="xMidYMid meet" version="1.0"><defs><clipPath id="453d1a4826"><path d="M 43.441406 0 L 798.019531 0 L 798.019531 841.5 L 43.441406 841.5 Z M 43.441406 0 " clip-rule="nonzero"/></clipPath></defs><g clip-path="url(#453d1a4826)"><path fill="#ffffff" d="M 798.261719 306.929688 L 798.261719 379.144531 C 798.261719 412.332031 771.386719 439.328125 738.351562 439.328125 C 705.316406 439.328125 678.441406 412.324219 678.441406 379.144531 L 678.441406 326.515625 C 678.40625 325.929688 678.101562 325.429688 678.101562 324.828125 C 678.101562 178.898438 562.535156 60.175781 420.488281 60.175781 C 281.710938 60.175781 168.519531 173.5625 163.363281 314.863281 L 163.363281 391.1875 C 163.363281 431.007812 195.613281 463.402344 235.257812 463.402344 C 248.492188 463.402344 259.226562 474.183594 259.226562 487.472656 C 259.226562 500.769531 248.492188 511.542969 235.257812 511.542969 C 184.773438 511.542969 141.691406 479.914062 124.074219 435.425781 C 117.613281 437.824219 110.730469 439.328125 103.453125 439.328125 C 70.417969 439.332031 43.542969 412.332031 43.542969 379.152344 L 43.542969 306.929688 C 43.542969 273.746094 70.417969 246.746094 103.453125 246.746094 C 106.511719 246.746094 109.457031 247.207031 112.394531 247.65625 C 146.390625 105.746094 271.433594 0 420.488281 0 C 569.5625 0 694.632812 105.78125 728.597656 247.738281 C 731.789062 247.207031 735.007812 246.746094 738.351562 246.746094 C 771.386719 246.746094 798.261719 273.75 798.261719 306.929688 Z M 618.039062 324.835938 C 618.039062 215.238281 529.585938 126.382812 420.480469 126.382812 C 311.382812 126.382812 222.941406 215.238281 222.941406 324.835938 C 222.941406 434.4375 311.382812 523.28125 420.480469 523.28125 C 529.585938 523.285156 618.039062 434.4375 618.039062 324.835938 Z M 617.144531 583.46875 L 546.8125 583.46875 C 531.152344 583.46875 516.484375 591.148438 507.523438 604.039062 L 458.351562 674.742188 C 439.117188 702.394531 398.273438 702.125 379.410156 674.210938 L 332.335938 604.566406 C 323.417969 591.367188 308.5625 583.460938 292.6875 583.460938 L 223.621094 583.460938 C 134.667969 583.460938 62.554688 655.898438 62.554688 745.257812 L 62.554688 817.0625 C 62.554688 830.359375 73.28125 841.132812 86.519531 841.132812 L 754.246094 841.132812 C 767.480469 841.132812 778.210938 830.351562 778.210938 817.0625 L 778.210938 745.257812 C 778.207031 655.902344 706.097656 583.46875 617.144531 583.46875 Z M 617.144531 583.46875 " fill-opacity="1" fill-rule="nonzero"/></g></svg>