<svg xmlns="http://www.w3.org/2000/svg" xmlns:xlink="http://www.w3.org/1999/xlink" width="1123" zoomAndPan="magnify" viewBox="0 0 841.92 842.249979" height="1123" preserveAspectRatio="xMidYMid meet" version="1.0"><defs><clipPath id="568042b364"><path d="M 44 0 L 816.113281 0 L 816.113281 841 L 44 841 Z M 44 0 " clip-rule="nonzero"/></clipPath></defs><g clip-path="url(#568042b364)"><path fill="#ffffff" d="M 382.332031 0.328125 C 275.992188 0.328125 189.488281 90.433594 189.488281 201.207031 C 189.488281 311.980469 275.992188 402.085938 382.332031 402.085938 C 488.667969 402.085938 575.175781 311.980469 575.175781 201.207031 C 575.175781 90.433594 488.667969 0.328125 382.332031 0.328125 Z M 382.332031 420.449219 C 230.097656 420.449219 97.058594 504.703125 51.257812 630.117188 C 26.15625 698.964844 77.648438 771.707031 150.160156 771.707031 L 421.125 771.707031 C 351.765625 636.183594 423.996094 499.359375 523.824219 446.4375 C 480.324219 429.742188 432.40625 420.449219 382.332031 420.449219 Z M 621.128906 482.410156 C 613.203125 482.410156 606.453125 488.140625 605.121094 495.9375 L 600.285156 524.089844 C 588.410156 527.304688 577.164062 531.9375 566.734375 537.933594 L 543.410156 521.484375 C 536.933594 516.921875 528.132812 517.683594 522.539062 523.273438 L 499.46875 546.34375 C 493.875 551.953125 493.148438 560.757812 497.710938 567.21875 L 514.160156 590.507812 C 508.164062 600.9375 503.5 612.183594 500.285156 624.058594 L 472.164062 628.894531 C 464.351562 630.242188 458.632812 637.027344 458.632812 644.933594 L 458.632812 677.542969 C 458.632812 685.46875 464.367188 692.21875 472.164062 693.550781 L 500.285156 698.386719 C 503.5 710.261719 508.164062 721.507812 514.160156 731.9375 L 497.710938 755.257812 C 493.148438 761.734375 493.875 770.539062 499.46875 776.132812 L 522.539062 799.203125 C 528.148438 804.792969 536.953125 805.523438 543.410156 800.960938 L 566.734375 784.511719 C 577.164062 790.507812 588.410156 795.171875 600.285156 798.386719 L 605.121094 826.539062 C 606.46875 834.335938 613.21875 840.039062 621.128906 840.039062 L 653.738281 840.039062 C 661.660156 840.039062 668.445312 834.335938 669.777344 826.539062 L 674.613281 798.386719 C 686.488281 795.171875 697.734375 790.507812 708.164062 784.511719 L 731.453125 800.960938 C 737.929688 805.523438 746.734375 804.792969 752.328125 799.203125 L 775.398438 776.132812 C 780.988281 770.523438 781.75 761.71875 777.1875 755.257812 L 760.738281 731.9375 C 766.734375 721.507812 771.367188 710.261719 774.582031 698.386719 L 802.734375 693.550781 C 810.546875 692.203125 816.230469 685.449219 816.230469 677.542969 L 816.230469 644.933594 C 816.230469 637.011719 810.53125 630.226562 802.734375 628.894531 L 774.582031 624.058594 C 771.367188 612.183594 766.734375 600.9375 760.738281 590.507812 L 777.1875 567.21875 C 781.75 560.742188 780.988281 551.9375 775.398438 546.34375 L 752.328125 523.273438 C 746.71875 517.683594 737.914062 516.921875 731.453125 521.484375 L 708.164062 537.933594 C 697.734375 531.9375 686.488281 527.304688 674.613281 524.089844 L 669.777344 495.9375 C 668.429688 488.140625 661.644531 482.410156 653.738281 482.410156 Z M 637.449219 611.003906 C 665.1875 611.003906 687.667969 633.484375 687.667969 661.222656 C 687.667969 688.960938 665.1875 711.441406 637.449219 711.441406 C 609.710938 711.441406 587.230469 688.960938 587.230469 661.222656 C 587.230469 633.484375 609.710938 611.003906 637.449219 611.003906 Z M 637.449219 611.003906 " fill-opacity="1" fill-rule="nonzero"/></g></svg>